<svg width="427" height="1559" viewBox="0 0 427 1559" fill="none" xmlns="http://www.w3.org/2000/svg">
<path d="M254.639 164.034C263.578 167.124 270.682 175.559 273.453 186.371L296.061 274.57C296.684 277.004 297 279.507 297 282.019V1528.5C297 1545.07 283.569 1558.5 267 1558.5H30C13.4315 1558.5 0 1545.07 0 1528.5V159.999C0 143.431 13.4315 129.999 30 129.999H151.134C154.47 129.999 157.782 130.556 160.935 131.645L254.639 164.034Z" fill="#818CF8"/>
<path d="M0 1136H297V1273H0V1136Z" fill="#7DD3FC"/>
<path d="M411.682 0.0589905C419.72 -0.669653 426.566 5.44791 426.241 13.0707L413.607 309.842C413.029 323.426 393.268 326.771 387.87 314.2L309.96 132.73C308.621 129.612 306.016 127.136 302.725 125.853L111.22 51.1889C98.3599 46.1748 101.283 28.2013 115.163 26.9428L411.682 0.0589905ZM389.529 38.8783L317.88 42.4398C313.437 42.661 311.314 47.7577 314.427 50.7328L382.337 115.648C385.467 118.64 390.903 116.639 391.134 112.409L394.872 43.9311C395.028 41.0701 392.552 38.7283 389.529 38.8783Z" fill="#7DD3FC"/>
</svg>
