<svg width="427" height="1559" viewBox="0 0 427 1559" fill="none" xmlns="http://www.w3.org/2000/svg">
<path d="M254.639 164.034C263.578 167.124 270.682 175.559 273.453 186.371L296.061 274.57C296.684 277.004 297 279.507 297 282.019V1528.5C297 1545.07 283.569 1558.5 267 1558.5H30C13.4315 1558.5 0 1545.07 0 1528.5V159.999C0 143.431 13.4315 129.999 30 129.999H151.134C154.47 129.999 157.782 130.556 160.935 131.645L254.639 164.034Z" fill="#4F46E5"/>
<path d="M0 1136H297V1273H0V1136Z" fill="#38BDF8"/>
<path d="M411.681 0.0590194C419.72 -0.669799 426.565 5.44787 426.241 13.0707L413.608 309.842C413.029 323.426 393.267 326.772 387.869 314.2L309.96 132.73C308.622 129.612 306.016 127.136 302.725 125.853L111.22 51.1889C98.3599 46.1749 101.283 28.2013 115.163 26.9428L411.681 0.0590194ZM389.529 38.8784L317.88 42.4399C313.437 42.6609 311.314 47.7576 314.426 50.7328L382.337 115.649C385.468 118.641 390.903 116.639 391.134 112.409L394.872 43.9321C395.029 41.0708 392.551 38.7281 389.529 38.8784Z" fill="#38BDF8"/>
</svg>
